<?xml version="1.0" encoding="UTF-8"?>
<svg version="1.1" xmlns="http://www.w3.org/2000/svg" width="548" height="480">
    <path
        d="M0 0 C0.66 0 1.32 0 2 0 C2.87316895 2.69543457 2.87316895 2.69543457 3.74633789 5.39086914 C4.13350983 6.58605164 4.52068176 7.78123413 4.91958618 9.01263428 C5.80604181 11.74908403 6.69249586 14.48553429 7.57894897 17.22198486 C9.85729181 24.25514702 12.13564497 31.28830584 14.41403675 38.32145214 C15.75780129 42.46950783 17.10155868 46.61756584 18.4453125 50.765625 C18.71803167 51.60748667 18.99075085 52.44934834 19.27173424 53.31672096 C22.88117559 64.45881211 26.49030078 75.6010056 30.09908676 86.74330902 C40.03956681 117.43487503 49.98413677 148.12510937 59.9375 178.8125 C60.18564201 179.57755104 60.43378403 180.34260208 60.6894455 181.13083649 C64.4593995 192.75396587 68.22967352 204.37699144 72 216 C76.02100136 228.39577884 80.04189539 240.79159247 84.0625 253.1875 C84.3107893 253.9529929 84.5590786 254.71848579 84.81489182 255.50717545 C92.14404358 278.10359382 99.46810268 300.70165702 106.78781128 323.30113602 C114.26468322 346.3857819 121.74351375 369.46979125 129.22841835 392.55183411 C130.51664451 396.52448501 131.80475159 400.49717441 133.0925293 404.4699707 C137.9207777 419.36498087 142.75163219 434.25902396 147.62109375 449.140625 C147.96225723 450.18418152 148.30342072 451.22773804 148.65492249 452.30291748 C150.18109935 456.97105704 151.70975866 461.63834206 153.24438477 466.30371094 C153.75679288 467.86910145 154.2690899 469.43452833 154.78125 471 C155.01118149 471.69498596 155.24111298 472.38997192 155.47801208 473.10601807 C157 477.77278094 157 477.77278094 157 480 C153.58366663 478.73934799 150.73943126 477.30076708 147.76953125 475.19921875 C146.97579102 474.64081299 146.18205078 474.08240723 145.36425781 473.50708008 C144.52217773 472.90661865 143.68009766 472.30615723 142.8125 471.6875 C141.93045898 471.06447998 141.04841797 470.44145996 140.13964844 469.79956055 C133.5651678 465.145087 127.03758866 460.42622339 120.51977539 455.69287109 C114.98955402 451.6863508 109.38785288 447.79600005 103.74804688 443.94580078 C99.54648584 441.07417776 95.38300595 438.15687335 91.25 435.1875 C85.59261142 431.12311941 79.89755214 427.11504592 74.1875 423.125 C65.80004455 417.26336187 57.43217124 411.37483369 49.07666016 405.46777344 C46.26226953 403.47857564 43.44660387 401.49118697 40.63085938 399.50390625 C38.5076685 398.00541223 36.38469331 396.50661297 34.26171875 395.0078125 C31.39007978 392.98069554 28.51759583 390.95478336 25.64453125 388.9296875 C18.75311585 384.07120871 11.86665331 379.20593615 5 374.3125 C4.40614502 373.8901709 3.81229004 373.4678418 3.20043945 373.03271484 C-0.88203288 370.11796712 -0.88203288 370.11796712 -2 369 C-2.09206371 366.2325623 -2.11943352 363.49032175 -2.10411072 360.72273254 C-2.10320926 359.86012467 -2.10230781 358.9975168 -2.10137904 358.1087693 C-2.09709839 355.24150704 -2.08558734 352.37432131 -2.07397461 349.50708008 C-2.06932572 347.49583679 -2.06506557 345.48459257 -2.06117916 343.47334766 C-2.04973595 338.30249072 -2.03194006 333.13167909 -2.01157522 327.96085024 C-2.00076067 325.19457366 -1.99099179 322.42829599 -1.98167801 319.66201401 C-1.9438928 308.64349086 -1.89018196 297.62508071 -1.83091402 286.60665441 C-1.81085331 282.84564567 -1.79160886 279.08463289 -1.77233958 275.32362002 C-1.72063906 265.23726603 -1.66724159 255.15092173 -1.61291289 245.06458157 C-1.57338389 237.7256535 -1.53439196 230.38672272 -1.49563599 223.04779053 C-1.10228358 148.69767723 -0.60372001 74.34869456 0 0 Z "
        fill="#FE6D72" transform="translate(291,0)" />
    <path
        d="M0 0 C0.66 0 1.32 0 2 0 C2.61230624 75.40609688 3.11417046 150.81248944 3.51238817 226.22002745 C3.55102215 233.53472854 3.59020853 240.84942653 3.62960815 248.16412354 C3.68350555 258.1839219 3.73586132 268.20372756 3.78719711 278.22353935 C3.80609 281.90625703 3.82543992 285.58897179 3.84524918 289.27168465 C3.85209476 290.57201178 3.85209476 290.57201178 3.85907865 291.89860815 C3.86838563 293.62521643 3.87822824 295.35182191 3.88861537 297.07842404 C3.91263847 301.27840341 3.925125 305.47777712 3.91209412 309.67781544 C3.89696156 317.76131832 4.00240964 325.80455767 4.42238933 333.87874311 C4.62198779 337.88646942 4.75945036 341.89527997 4.89102161 345.90574801 C4.97017678 347.82056022 5.07819451 349.73443725 5.2175895 351.64580858 C6.25998867 366.10807109 6.25998867 366.10807109 2.45928693 370.97152877 C-1.331149 374.58016918 -5.56927569 377.33219871 -10.10505283 379.91221464 C-12.54266255 381.31151284 -14.80817177 382.91480956 -17.0859375 384.55859375 C-18.51345668 385.52145173 -19.94311008 386.48115397 -21.375 387.4375 C-27.78663986 391.77172106 -34.11533604 396.19896881 -40.375 400.75 C-46.35986675 405.10030126 -52.37978392 409.37781741 -58.4765625 413.5703125 C-71.37178413 422.44192245 -84.1426752 431.49673425 -96.92333984 440.53222656 C-100.44767516 443.02320986 -103.97394701 445.51144903 -107.5 448 C-108.91667568 448.99998722 -110.33334236 449.99998722 -111.75 451 C-114.58333333 453 -117.41666667 455 -120.25 457 C-120.9522168 457.49580566 -121.65443359 457.99161133 -122.37792969 458.50244141 C-123.78436117 459.4949691 -125.19125697 460.48683919 -126.59863281 461.47802734 C-130.30111784 464.08694777 -133.9931169 466.70926778 -137.671875 469.3515625 C-138.43822266 469.89941406 -139.20457031 470.44726562 -139.99414062 471.01171875 C-141.45939577 472.05959818 -142.92181178 473.11146316 -144.38085938 474.16796875 C-145.04408203 474.64105469 -145.70730469 475.11414063 -146.390625 475.6015625 C-146.96844727 476.01744629 -147.54626953 476.43333008 -148.14160156 476.86181641 C-150.33614455 478.20587308 -152.60582089 479.06711179 -155 480 C-153.01992813 472.46229609 -150.78453968 465.04879594 -148.33203125 457.65234375 C-147.98058548 456.58410873 -147.62913971 455.51587372 -147.26704407 454.41526794 C-146.51174808 452.11972529 -145.75532245 449.82455406 -144.99786377 447.52972412 C-142.95400754 441.33585364 -140.91986503 435.13879926 -138.88671875 428.94140625 C-138.57590866 427.99426254 -138.57590866 427.99426254 -138.25881958 427.02798462 C-134.14833037 414.49779969 -130.12490866 401.94083152 -126.125 389.375 C-119.97399427 370.06089252 -113.68772142 350.79285979 -107.3546524 331.5378952 C-101.4933301 313.71602892 -95.69142601 295.87698935 -90 278 C-84.09969261 259.46690618 -78.07682014 240.97579265 -72 222.5 C-65.57175136 202.95563589 -59.21646632 183.39016576 -52.97363281 163.78564453 C-47.5713028 146.82757221 -42.05653381 129.90813071 -36.5 113 C-28.78341945 89.51719933 -21.20629739 65.99260902 -13.69750977 42.44265747 C-10.65680239 32.91196827 -7.583629 23.39187706 -4.5 13.875 C-4.2635376 13.14514893 -4.0270752 12.41529785 -3.78344727 11.66333008 C-2.52347446 7.77517119 -1.26236024 3.88738454 0 0 Z "
        fill="#FE6D72" transform="translate(255,0)" />
    <path
        d="M0 0 C57.75 0 115.5 0 175 0 C173.87406985 3.37779045 173.20984612 3.85269787 170.4140625 5.86328125 C169.65818848 6.41290527 168.90231445 6.9625293 168.12353516 7.52880859 C167.29901855 8.11742676 166.47450195 8.70604492 165.625 9.3125 C163.87490718 10.5819033 162.12490974 11.85143809 160.375 13.12109375 C159.02921875 14.09151611 159.02921875 14.09151611 157.65625 15.08154297 C153.62915546 17.99008239 149.62516427 20.92957809 145.625 23.875 C144.84785645 24.44645752 144.07071289 25.01791504 143.27001953 25.60668945 C137.29936229 30.00988125 131.39226288 34.49262447 125.5 39 C114.98837925 47.04102314 104.34369567 54.89059941 93.66601562 62.70898438 C84.54635183 69.39064281 75.47993315 76.13134157 66.5 83 C59.5737419 88.29360342 52.6273717 93.55735359 45.625 98.75 C44.85865234 99.32234375 44.09230469 99.8946875 43.30273438 100.484375 C42.57634766 101.020625 41.84996094 101.556875 41.1015625 102.109375 C40.47588379 102.57311523 39.85020508 103.03685547 39.20556641 103.51464844 C36.22851039 105.51956418 33.13044104 107.24416328 30 109 C29.72961914 108.01346436 29.45923828 107.02692871 29.18066406 106.01049805 C27.87164964 101.23583389 26.56112273 96.46158562 25.25 91.6875 C25.0065686 90.80108826 24.76313721 89.91467651 24.5123291 89.00140381 C21.64264632 78.55657159 18.75979721 68.11558523 15.84375 57.68359375 C15.58422546 56.75510117 15.32470093 55.82660858 15.05731201 54.86997986 C13.81545828 50.42922449 12.57158244 45.98904555 11.32519531 41.54956055 C7.45280979 27.72336568 3.73344409 13.86707804 0 0 Z "
        fill="#FE6D72" transform="translate(373,148)" />
    <path
        d="M0 0 C57.75 0 115.5 0 175 0 C163.46153846 42.69230769 163.46153846 42.69230769 157.75 63 C157.1717283 65.06245887 156.59360403 67.12495909 156.015625 69.1875 C152.38381035 82.13651133 148.70663718 95.07221909 145 108 C141.65185306 107.24899773 139.63978948 106.21381693 136.90234375 104.11328125 C136.11093994 103.51201416 135.31953613 102.91074707 134.50415039 102.29125977 C133.65715576 101.63826904 132.81016113 100.98527832 131.9375 100.3125 C130.12300341 98.93149302 128.30788476 97.55130301 126.4921875 96.171875 C125.57276367 95.47126953 124.65333984 94.77066406 123.70605469 94.04882812 C119.69073005 91.00871586 115.62744441 88.03572875 111.5625 85.0625 C104.81791691 80.1148801 98.14306715 75.08300368 91.5 70 C81.75447342 62.54480189 71.89966457 55.24870837 62 48 C51.08574916 40.00839374 40.25332767 31.92695266 29.51342773 23.70214844 C22.45069536 18.30804363 15.25880845 13.12501107 8 8 C6.36907466 6.84163104 4.74306649 5.67626398 3.125 4.5 C2.50882812 4.0565625 1.89265625 3.613125 1.2578125 3.15625 C0.63519531 2.58390625 0.63519531 2.58390625 0 2 C0 1.34 0 0.68 0 0 Z "
        fill="#FE6D72" transform="translate(0,148)" />
</svg>
