<?xml version="1.0" encoding="UTF-8"?>
<svg version="1.1" xmlns="http://www.w3.org/2000/svg" width="500" height="500">
    <path
        d="M0 0 C-0.42740217 2.90633477 -1.0021442 5.00386305 -2.4375 7.58984375 C-15.11263268 35.25332082 -7.7972285 78.73667624 2.2109375 106.33984375 C3.09806466 108.58282838 4.010784 110.80051414 5 113 C5.66 113 6.32 113 7 113 C7.5534764 115.07553648 8 116.84365964 8 119 C11.6849577 127.4404059 15.9770034 135.42477338 21.3125 142.9375 C21.73257324 143.53401367 22.15264648 144.13052734 22.58544922 144.74511719 C24.63873459 147.54497679 25.62943798 148.87647933 29 150 C29.2165625 150.9590625 29.2165625 150.9590625 29.4375 151.9375 C29.623125 152.618125 29.80875 153.29875 30 154 C30.66 154.33 31.32 154.66 32 155 C32.66 155.33 33.32 155.66 34 156 C34.12761719 156.59425781 34.25523438 157.18851563 34.38671875 157.80078125 C35.20162998 160.72304253 36.66735514 162.0662343 38.8125 164.1875 C39.49957031 164.88230469 40.18664062 165.57710937 40.89453125 166.29296875 C43.06608622 168.05358011 44.35648578 168.36267477 47 169 C47.66 169.99 48.32 170.98 49 172 C48.67 172.66 48.34 173.32 48 174 C48.556875 174.268125 49.11375 174.53625 49.6875 174.8125 C52 176 52 176 54.5625 177.5625 C57.00654778 179.11858764 57.00654778 179.11858764 60 180 C60.33 180.66 60.66 181.32 61 182 C62.134375 182.474375 63.26875 182.94875 64.4375 183.4375 C68 185 68 185 70 188 C71.1446875 188.185625 71.1446875 188.185625 72.3125 188.375 C75.97824124 189.22749796 77.53367055 191.25180433 80 194 C80.66 193.67 81.32 193.34 82 193 C83.91015625 193.70703125 83.91015625 193.70703125 86.0625 194.8125 C86.77535156 195.16957031 87.48820313 195.52664063 88.22265625 195.89453125 C90 197 90 197 91 199 C93.25001264 199.6161065 93.25001264 199.6161065 95.875 200 C99.38020217 200.5722779 100.97069276 200.98046184 104 203 C104 203.33 104 203.66 104 204 C105.155 204.144375 106.31 204.28875 107.5 204.4375 C108.22832031 204.52902344 108.95664063 204.62054688 109.70703125 204.71484375 C111.18311639 204.89841141 112.659655 205.07838679 114.13671875 205.25390625 C124.49715909 206.49715909 124.49715909 206.49715909 127 209 C133.21035937 210.40786756 139.85417907 210.14725344 146.1875 210.1328125 C147.60131958 210.13424759 147.60131958 210.13424759 149.04370117 210.13571167 C151.02360095 210.13638792 153.00350301 210.13457263 154.98339844 210.13037109 C157.99158774 210.12501498 160.99962777 210.13033507 164.0078125 210.13671875 C165.94270866 210.13605787 167.87760473 210.1347765 169.8125 210.1328125 C170.70026123 210.13483673 171.58802246 210.13686096 172.50268555 210.13894653 C182.49740398 210.71039833 182.49740398 210.71039833 191 207 C196.30719218 205.24895085 201.43480025 204.89297693 207 205 C208.67557379 204.71479595 210.34817245 204.40044304 212 204 C212 203.34 212 202.68 212 202 C215.08315005 200.55477341 217.76487963 199.86007524 221.125 199.5625 C225.20331266 198.97048687 225.4948194 198.83194329 228 196 C234.33333333 193 234.33333333 193 237 193 C237.5775 192.360625 238.155 191.72125 238.75 191.0625 C241.48382274 188.55649582 243.36785602 188.33019491 247 188 C247.33 187.01 247.66 186.02 248 185 C250.32671865 183.98470459 252.6603447 182.98511802 255 182 C255.66 181.01 256.32 180.02 257 179 C257.598125 178.855625 258.19625 178.71125 258.8125 178.5625 C261.82434177 177.7880264 263.61561324 175.94515762 266 174 C266.66 174 267.32 174 268 174 C267.67 173.01 267.34 172.02 267 171 C269.52904082 168.09160305 269.52904082 168.09160305 271.84765625 167.640625 C274.71735418 166.78648623 276.09291456 165.30566426 278.1875 163.1875 C278.88230469 162.50042969 279.57710938 161.81335938 280.29296875 161.10546875 C282.03714935 158.95417964 282.43217085 157.64413372 283 155 C284.33333333 154.33333333 285.66666667 153.66666667 287 153 C287.165 152.34 287.33 151.68 287.5 151 C287.665 150.34 287.83 149.68 288 149 C288.57105469 148.77828125 289.14210938 148.5565625 289.73046875 148.328125 C293.18129048 146.30871125 294.80148054 143.09506979 296.8125 139.75 C297.2453833 139.04214355 297.6782666 138.33428711 298.12426758 137.60498047 C302.11532393 130.98591936 306.11631027 124.18319825 309 117 C308.67 116.34 308.34 115.68 308 115 C308.66 114.34 309.32 113.68 310 113 C326.56463528 88.15304709 325.41902899 48.70794284 321.75 20.5 C321.64083252 19.62972168 321.53166504 18.75944336 321.41918945 17.86279297 C320.80838488 13.83268434 319.9994496 10.6672384 317.890625 7.15625 C316 4 316 4 316 0 C317.7109375 -0.69921875 317.7109375 -0.69921875 320 -1 C322.2890625 0.29296875 322.2890625 0.29296875 324.625 2.1875 C325.40101563 2.79980469 326.17703125 3.41210938 326.9765625 4.04296875 C329 6 329 6 329.9453125 7.92456055 C331.04247087 10.0835752 332.19636111 11.4544381 333.8984375 13.1640625 C334.46046875 13.72867188 335.0225 14.29328125 335.6015625 14.875 C336.18679688 15.4525 336.77203125 16.03 337.375 16.625 C338.24125 17.50285156 338.24125 17.50285156 339.125 18.3984375 C339.68960937 18.96046875 340.25421875 19.5225 340.8359375 20.1015625 C341.34688965 20.61025879 341.8578418 21.11895508 342.38427734 21.64306641 C343.9881553 23.10147482 343.9881553 23.10147482 346.14306641 24.04443359 C348.80720798 25.41538418 348.89495905 27.23739763 350 30 C353.66227345 35.08610661 353.66227345 35.08610661 359 38 C359.0928125 39.0828125 359.0928125 39.0828125 359.1875 40.1875 C360.24831738 43.85956016 362.26065167 45.39427842 365 48 C365.69937532 49.31647119 366.36729133 50.65022151 367 52 C369.52376666 55.55232695 369.52376666 55.55232695 373 58 C373.12117188 58.69480469 373.24234375 59.38960937 373.3671875 60.10546875 C374.20788264 63.95087059 376.13002846 66.97269112 378.125 70.3125 C382.76048135 78.27877115 386.48115336 86.49140621 390 95 C390.66 95 391.32 95 392 95 C392.309375 96.8871875 392.309375 96.8871875 392.625 98.8125 C393.66295473 104.05417138 395.23045538 109.05076772 396.875 114.125 C399.61835421 122.68469691 402.180224 131.19038017 404 140 C404.18336914 140.86302734 404.36673828 141.72605469 404.55566406 142.61523438 C410.78294595 173.23533789 410.72390498 207.4779508 404 238 C403.75330566 239.12100098 403.50661133 240.24200195 403.25244141 241.39697266 C398.90741773 260.50280728 392.80242927 278.82286818 384.12890625 296.40625 C383.0206457 298.95256489 382.43111505 301.26464935 382 304 C381.34 304 380.68 304 380 304 C379.50113281 304.93457031 379.00226563 305.86914062 378.48828125 306.83203125 C370.25011094 322.00451696 361.00371857 336.52646857 349 349 C347.72136221 350.45149539 346.45009862 351.90953141 345.1875 353.375 C343.37080704 355.47475907 341.58150559 357.39703316 339.5625 359.3125 C337.66029598 360.98358097 337.66029598 360.98358097 338 364 C336.46384829 365.99699722 335.56270354 366.89108964 333.0625 367.375 C329.31127513 368.51173481 327.59286145 372.11070783 325.5 375.25 C324 377 324 377 322.1875 377.4375 C318.6936916 378.33590787 316.59373765 380.57917819 314 383 C313.67 383.99 313.34 384.98 313 386 C311.8553125 386.0928125 311.8553125 386.0928125 310.6875 386.1875 C307.13966123 387.26010242 306.79594408 388.87661899 305 392 C303.0625 392.5625 303.0625 392.5625 301 393 C300.14341797 393.87205078 300.14341797 393.87205078 299.26953125 394.76171875 C296.60121814 397.39329089 293.79571274 399.25444653 290.625 401.25 C289.52414062 401.95640625 288.42328125 402.6628125 287.2890625 403.390625 C283.83252852 405.08194566 281.78782264 405.34330719 278 405 C277.731875 405.61875 277.46375 406.2375 277.1875 406.875 C276 409 276 409 273 411 C270.3125 410.625 270.3125 410.625 268 410 C267.79375 410.598125 267.5875 411.19625 267.375 411.8125 C265.45320698 414.86989799 263.31879254 415.71312126 260 417 C259.01 416.67 258.02 416.34 257 416 C256.5875 416.45375 256.175 416.9075 255.75 417.375 C252.78952192 420.12401536 250.83086464 420.96804367 246.75 421.125 C245.8425 421.08375 244.935 421.0425 244 421 C243.67 421.66 243.34 422.32 243 423 C237.94490204 425.30583416 234.66492652 426.03275692 229.05932617 425.93652344 C225.86383197 426.03502118 222.99738772 426.92350106 219.9375 427.8125 C213.12192819 429.66469207 206.31514899 430.79221811 199.3125 431.6875 C198.38751709 431.80649658 197.46253418 431.92549316 196.50952148 432.0480957 C184.01905163 433.57432966 171.57898982 434.23621608 159 434.25 C157.90381851 434.25200912 157.90381851 434.25200912 156.78549194 434.25405884 C135.18191473 434.24557457 113.4745211 432.45795056 92.5625 426.8125 C89.67856254 426.15475988 87.85704614 425.95240188 85 426.0625 C80.44599899 426.19776736 77.12932307 424.88355087 73 423 C72.67 422.34 72.34 421.68 72 421 C70.700625 421.0928125 70.700625 421.0928125 69.375 421.1875 C64.64268147 420.92459342 61.34530013 419.34530013 58 416 C57.34 416.33 56.68 416.66 56 417 C54.0546875 416.07421875 54.0546875 416.07421875 51.875 414.6875 C51.15054688 414.23761719 50.42609375 413.78773438 49.6796875 413.32421875 C49.12539062 412.88722656 48.57109375 412.45023437 48 412 C48 411.34 48 410.68 48 410 C47.278125 410.2475 46.55625 410.495 45.8125 410.75 C43 411 43 411 40.1875 409.1875 C39.465625 408.465625 38.74375 407.74375 38 407 C38 406.34 38 405.68 38 405 C37.14664063 405.07734375 36.29328125 405.1546875 35.4140625 405.234375 C31.15361472 404.94189575 28.95265433 403.54573135 25.375 401.25 C24.26898438 400.55390625 23.16296875 399.8578125 22.0234375 399.140625 C19.36741441 397.2601332 17.2681988 395.3091595 15 393 C14.319375 392.855625 13.63875 392.71125 12.9375 392.5625 C11 392 11 392 9.625 389.5625 C7.51659627 386.23770951 5.65500646 386.16649142 2 385 C1.29848848 383.6846659 0.63474075 382.34882408 0 381 C-2.64639908 379.04396589 -5.15909959 377.36038589 -8.1875 376.0625 C-10.71683529 374.57978621 -11.53439341 372.50374459 -13 370 C-14.97390511 368.28079233 -16.75961257 367.1131235 -19.125 366 C-21 365 -21 365 -23 362 C-23 361.34 -23 360.68 -23 360 C-24.26382489 358.64056661 -25.58862632 357.33758913 -26.9375 356.0625 C-40.25678877 342.97142334 -50.81911448 327.17356723 -60.16015625 311.07421875 C-62.83139462 306.27823632 -62.83139462 306.27823632 -67 303 C-67.11988281 302.19046875 -67.23976563 301.3809375 -67.36328125 300.546875 C-68.22518661 295.74558627 -70.19135822 291.67899016 -72.1875 287.25 C-79.17347677 271.30718108 -84.39649868 255.03445938 -88 238 C-88.19899902 237.07300293 -88.39799805 236.14600586 -88.60302734 235.19091797 C-96.81820272 195.04353756 -93.30488596 152.42482447 -80.81933594 113.62255859 C-78.90341308 107.49000695 -77.20407259 101.31253802 -76 95 C-75.34 95 -74.68 95 -74 95 C-73.61070313 94.05382812 -73.22140625 93.10765625 -72.8203125 92.1328125 C-69.15564915 83.41167209 -65.0285906 75.13254945 -60.28955078 66.94189453 C-59.87688965 66.22372559 -59.46422852 65.50555664 -59.0390625 64.765625 C-58.66990723 64.13430664 -58.30075195 63.50298828 -57.92041016 62.85253906 C-56.95992112 60.91933195 -56.44478168 59.10673789 -56 57 C-55.34 57 -54.68 57 -54 57 C-53.360625 55.88625 -52.72125 54.7725 -52.0625 53.625 C-51.70285156 52.99851563 -51.34320313 52.37203125 -50.97265625 51.7265625 C-50.28280949 50.50201525 -49.62855462 49.25710923 -49 48 C-48.195625 47.2575 -47.39125 46.515 -46.5625 45.75 C-43.81635121 43.18463467 -43.81635121 43.18463467 -42.9375 39.8125 C-42 37 -42 37 -40.1875 36.0625 C-39.465625 35.711875 -38.74375 35.36125 -38 35 C-35.58238154 32.16129484 -33.51500862 29.1587694 -32 25.75 C-31 24 -31 24 -28.85546875 22.79296875 C-25.17541024 20.48223434 -22.35295502 17.64427491 -19.3125 14.5625 C-18.44141602 13.70301758 -18.44141602 13.70301758 -17.55273438 12.82617188 C-16.99521484 12.26607422 -16.43769531 11.70597656 -15.86328125 11.12890625 C-15.36094971 10.62431885 -14.85861816 10.11973145 -14.34106445 9.59985352 C-12.86825537 7.84283223 -11.99624109 6.05644883 -11 4 C-9.4140625 2.48046875 -9.4140625 2.48046875 -7.625 1.1875 C-6.74714844 0.52814453 -6.74714844 0.52814453 -5.8515625 -0.14453125 C-3.50485148 -1.22877115 -2.38346137 -0.85573613 0 0 Z M-76 98 C-75 100 -75 100 -75 100 Z M391 98 C392 100 392 100 392 100 Z "
        fill="#C67CE6" transform="translate(92,65)" />
    <path
        d="M0 0 C0.89669907 -0.0033284 1.79339813 -0.0066568 2.7172699 -0.01008606 C4.61432383 -0.01514037 6.51138661 -0.01749485 8.40844727 -0.01733398 C11.27440582 -0.01950535 14.13996961 -0.03763507 17.00585938 -0.05664062 C37.88047984 -0.12056922 37.88047984 -0.12056922 47.74609375 3.16796875 C51.00600107 4.13386721 54.22369372 5.06348874 57.55859375 5.73046875 C59.74609375 6.16796875 59.74609375 6.16796875 61.74609375 7.16796875 C61.74609375 8.15796875 61.74609375 9.14796875 61.74609375 10.16796875 C62.46796875 9.92046875 63.18984375 9.67296875 63.93359375 9.41796875 C66.74609375 9.16796875 66.74609375 9.16796875 69.30859375 10.98046875 C70.11296875 11.70234375 70.91734375 12.42421875 71.74609375 13.16796875 C72.44734375 13.51859375 73.14859375 13.86921875 73.87109375 14.23046875 C75.74609375 15.16796875 75.74609375 15.16796875 77.18359375 16.73046875 C78.70882862 18.39336429 78.70882862 18.39336429 81.24609375 18.60546875 C84.4228098 19.32022986 85.00480334 20.51457385 86.74609375 23.16796875 C88.86394488 24.28581988 88.86394488 24.28581988 91.74609375 25.16796875 C92.77188086 26.81888928 93.76808949 28.4883005 94.74609375 30.16796875 C96.17536907 31.77623251 97.65704991 33.339222 99.18359375 34.85546875 C100.32634766 36.00595703 100.32634766 36.00595703 101.4921875 37.1796875 C103.59641422 39.22873025 103.59641422 39.22873025 105.96875 40.1875 C106.55527344 40.51105469 107.14179688 40.83460937 107.74609375 41.16796875 C108.11862267 42.4908864 108.44423605 43.82715899 108.74609375 45.16796875 C110.04743507 47.14133754 111.41071291 49.07426761 112.80859375 50.98046875 C123.90992766 66.63893472 131.56073361 83.95187096 133.74609375 103.16796875 C134.40609375 103.16796875 135.06609375 103.16796875 135.74609375 103.16796875 C136.56766948 108.89943751 136.90054048 114.44418578 136.87109375 120.23046875 C136.87496094 120.99423828 136.87882813 121.75800781 136.8828125 122.54492188 C136.87486865 127.18810087 136.51247179 131.5879476 135.74609375 136.16796875 C135.08609375 136.16796875 134.42609375 136.16796875 133.74609375 136.16796875 C133.61332031 137.26496094 133.48054687 138.36195313 133.34375 139.4921875 C133.1654639 140.94662676 132.98707295 142.40105317 132.80859375 143.85546875 C132.67807617 144.93731445 132.67807617 144.93731445 132.54492188 146.04101562 C132.0829557 149.78807459 131.55441696 153.47589786 130.74609375 157.16796875 C130.08609375 157.16796875 129.42609375 157.16796875 128.74609375 157.16796875 C128.53855469 157.81121094 128.33101562 158.45445312 128.1171875 159.1171875 C125.79930954 165.91564963 122.80756668 171.99443778 119.234375 178.22265625 C117.85339855 180.95561227 117.16304387 183.15480923 116.74609375 186.16796875 C115.75609375 186.49796875 114.76609375 186.82796875 113.74609375 187.16796875 C112.0674474 189.28203053 112.0674474 189.28203053 110.37109375 191.91796875 C106.48099884 197.47006316 102.04756667 202.08750603 97.13916016 206.75097656 C94.3601636 209.41795027 92.39900748 211.70968808 90.74609375 215.16796875 C89.75609375 215.49796875 88.76609375 215.82796875 87.74609375 216.16796875 C84.81215328 217.95710324 84.81215328 217.95710324 83.05859375 219.98046875 C76.86175488 225.84234336 68.88524619 229.94013826 60.55859375 231.60546875 C59.96046875 231.79109375 59.36234375 231.97671875 58.74609375 232.16796875 C58.41609375 232.82796875 58.08609375 233.48796875 57.74609375 234.16796875 C54.80759159 235.72364637 52.87778866 236.17084908 49.53125 236.09765625 C46.18255715 236.15986107 43.55074741 236.66576542 40.35742188 237.59179688 C22.10090474 242.72589845 -0.60190168 242.30799552 -18.7578125 237.04296875 C-22.3953702 236.13256325 -25.52234074 236.12306423 -29.25390625 236.16796875 C-34.90506904 233.86564317 -34.90506904 233.86564317 -36.25390625 231.16796875 C-37.24390625 231.16796875 -38.23390625 231.16796875 -39.25390625 231.16796875 C-47.2362481 229.75635461 -54.97460976 224.08220079 -61.25390625 219.16796875 C-61.58390625 218.50796875 -61.91390625 217.84796875 -62.25390625 217.16796875 C-64.21606841 216.14764843 -64.21606841 216.14764843 -66.19140625 215.41796875 C-68.25390625 214.16796875 -68.25390625 214.16796875 -69.52734375 211.94140625 C-71.57874957 208.6461616 -74.14339816 206.18618783 -76.94140625 203.54296875 C-81.86084964 198.79200456 -85.83636469 193.95691832 -89.6328125 188.25 C-91.16048044 185.89118402 -91.16048044 185.89118402 -94.25390625 185.16796875 C-94.33769531 184.33136719 -94.42148438 183.49476563 -94.5078125 182.6328125 C-95.40275322 178.47672652 -97.08988375 175.38674595 -99.19140625 171.73046875 C-101.93794694 166.93016417 -103.92651735 162.55397082 -105.25390625 157.16796875 C-105.91390625 157.16796875 -106.57390625 157.16796875 -107.25390625 157.16796875 C-108.21934738 152.75825117 -108.77633574 148.33205324 -109.31640625 143.85546875 C-109.40728516 143.11490234 -109.49816406 142.37433594 -109.59179688 141.61132812 C-109.81418844 139.79708117 -110.03427978 137.98255251 -110.25390625 136.16796875 C-110.91390625 136.16796875 -111.57390625 136.16796875 -112.25390625 136.16796875 C-113.15035778 130.81060363 -113.40638402 125.65732852 -113.37890625 120.23046875 C-113.38277344 119.47056641 -113.38664062 118.71066406 -113.390625 117.92773438 C-113.38207948 112.92433047 -112.96389643 108.12099549 -112.25390625 103.16796875 C-111.59390625 103.16796875 -110.93390625 103.16796875 -110.25390625 103.16796875 C-110.09535156 102.25917969 -109.93679687 101.35039063 -109.7734375 100.4140625 C-106.04526 80.33133842 -98.93858568 62.50727034 -86.00390625 46.5859375 C-84.14056837 44.36085046 -84.14056837 44.36085046 -83.81640625 42.03125 C-82.9460418 39.14816776 -80.81625972 38.60288669 -78.25390625 37.16796875 C-76.62493528 35.71765912 -75.04096932 34.21534768 -73.50390625 32.66796875 C-72.7253125 31.89453125 -71.94671875 31.12109375 -71.14453125 30.32421875 C-69.05758008 28.22510996 -69.05758008 28.22510996 -68.25390625 25.16796875 C-67.26390625 24.83796875 -66.27390625 24.50796875 -65.25390625 24.16796875 C-62.27159114 22.35492329 -62.27159114 22.35492329 -60.37890625 20.10546875 C-57.96744745 17.90678573 -56.44902096 17.5229815 -53.25390625 17.16796875 C-52.75890625 15.68296875 -52.75890625 15.68296875 -52.25390625 14.16796875 C-50.92057292 13.83463542 -49.58723958 13.50130208 -48.25390625 13.16796875 C-47.44953125 12.46671875 -46.64515625 11.76546875 -45.81640625 11.04296875 C-43.25390625 9.16796875 -43.25390625 9.16796875 -40.44140625 9.41796875 C-39.71953125 9.66546875 -38.99765625 9.91296875 -38.25390625 10.16796875 C-38.25390625 9.17796875 -38.25390625 8.18796875 -38.25390625 7.16796875 C-34.53234854 5.05596346 -31.38343327 4.78692306 -27.1796875 4.51171875 C-26.54417969 4.39828125 -25.90867187 4.28484375 -25.25390625 4.16796875 C-24.92390625 3.50796875 -24.59390625 2.84796875 -24.25390625 2.16796875 C-22.14453125 1.7890625 -22.14453125 1.7890625 -19.50390625 1.60546875 C-15.80470843 1.33840993 -15.80470843 1.33840993 -12.16723633 0.66308594 C-8.10448023 -0.02737492 -4.11412175 0.00535318 0 0 Z M-112.25390625 112.16796875 C-112.25390625 117.11796875 -112.25390625 122.06796875 -112.25390625 127.16796875 C-111.92390625 127.16796875 -111.59390625 127.16796875 -111.25390625 127.16796875 C-111.25390625 122.21796875 -111.25390625 117.26796875 -111.25390625 112.16796875 C-111.58390625 112.16796875 -111.91390625 112.16796875 -112.25390625 112.16796875 Z M134.74609375 112.16796875 C134.74609375 117.11796875 134.74609375 122.06796875 134.74609375 127.16796875 C135.07609375 127.16796875 135.40609375 127.16796875 135.74609375 127.16796875 C135.74609375 122.21796875 135.74609375 117.26796875 135.74609375 112.16796875 C135.41609375 112.16796875 135.08609375 112.16796875 134.74609375 112.16796875 Z M-107.25390625 152.16796875 C-106.25390625 154.16796875 -106.25390625 154.16796875 -106.25390625 154.16796875 Z M129.74609375 152.16796875 C130.74609375 154.16796875 130.74609375 154.16796875 130.74609375 154.16796875 Z "
        fill="#C67CE6" transform="translate(238.25390625,-0.16796875)" />
    <path
        d="M0 0 C-0.42740217 2.90633477 -1.0021442 5.00386305 -2.4375 7.58984375 C-15.11263268 35.25332082 -7.7972285 78.73667624 2.2109375 106.33984375 C3.09806466 108.58282838 4.010784 110.80051414 5 113 C5.66 113 6.32 113 7 113 C7.5534764 115.07553648 8 116.84365964 8 119 C11.6849577 127.4404059 15.9770034 135.42477338 21.3125 142.9375 C21.73257324 143.53401367 22.15264648 144.13052734 22.58544922 144.74511719 C24.63873459 147.54497679 25.62943798 148.87647933 29 150 C29.2165625 150.9590625 29.2165625 150.9590625 29.4375 151.9375 C29.623125 152.618125 29.80875 153.29875 30 154 C30.66 154.33 31.32 154.66 32 155 C32.66 155.33 33.32 155.66 34 156 C34.12761719 156.59425781 34.25523438 157.18851563 34.38671875 157.80078125 C35.20162998 160.72304253 36.66735514 162.0662343 38.8125 164.1875 C39.49957031 164.88230469 40.18664062 165.57710937 40.89453125 166.29296875 C43.06608622 168.05358011 44.35648578 168.36267477 47 169 C47.66 169.99 48.32 170.98 49 172 C48.67 172.66 48.34 173.32 48 174 C48.556875 174.268125 49.11375 174.53625 49.6875 174.8125 C52 176 52 176 54.5625 177.5625 C57.00654778 179.11858764 57.00654778 179.11858764 60 180 C60.33 180.66 60.66 181.32 61 182 C62.134375 182.474375 63.26875 182.94875 64.4375 183.4375 C68 185 68 185 70 188 C71.1446875 188.185625 71.1446875 188.185625 72.3125 188.375 C75.97824124 189.22749796 77.53367055 191.25180433 80 194 C80.66 193.67 81.32 193.34 82 193 C83.91015625 193.70703125 83.91015625 193.70703125 86.0625 194.8125 C86.77535156 195.16957031 87.48820313 195.52664063 88.22265625 195.89453125 C90 197 90 197 91 199 C93.25001264 199.6161065 93.25001264 199.6161065 95.875 200 C99.38020217 200.5722779 100.97069276 200.98046184 104 203 C104 203.33 104 203.66 104 204 C105.155 204.144375 106.31 204.28875 107.5 204.4375 C108.22832031 204.52902344 108.95664063 204.62054688 109.70703125 204.71484375 C111.18311639 204.89841141 112.659655 205.07838679 114.13671875 205.25390625 C124.49715909 206.49715909 124.49715909 206.49715909 127 209 C133.21035937 210.40786756 139.85417907 210.14725344 146.1875 210.1328125 C147.60131958 210.13424759 147.60131958 210.13424759 149.04370117 210.13571167 C151.02360095 210.13638792 153.00350301 210.13457263 154.98339844 210.13037109 C157.99158774 210.12501498 160.99962777 210.13033507 164.0078125 210.13671875 C165.94270866 210.13605787 167.87760473 210.1347765 169.8125 210.1328125 C170.70026123 210.13483673 171.58802246 210.13686096 172.50268555 210.13894653 C182.49740398 210.71039833 182.49740398 210.71039833 191 207 C196.30719218 205.24895085 201.43480025 204.89297693 207 205 C208.67557379 204.71479595 210.34817245 204.40044304 212 204 C212 203.34 212 202.68 212 202 C215.08315005 200.55477341 217.76487963 199.86007524 221.125 199.5625 C225.20331266 198.97048687 225.4948194 198.83194329 228 196 C234.33333333 193 234.33333333 193 237 193 C237.5775 192.360625 238.155 191.72125 238.75 191.0625 C241.48382274 188.55649582 243.36785602 188.33019491 247 188 C247.33 187.01 247.66 186.02 248 185 C250.32671865 183.98470459 252.6603447 182.98511802 255 182 C255.66 181.01 256.32 180.02 257 179 C257.598125 178.855625 258.19625 178.71125 258.8125 178.5625 C261.82434177 177.7880264 263.61561324 175.94515762 266 174 C266.66 174 267.32 174 268 174 C267.67 173.01 267.34 172.02 267 171 C269.52904082 168.09160305 269.52904082 168.09160305 271.84765625 167.640625 C274.71735418 166.78648623 276.09291456 165.30566426 278.1875 163.1875 C278.88230469 162.50042969 279.57710938 161.81335938 280.29296875 161.10546875 C282.03714935 158.95417964 282.43217085 157.64413372 283 155 C284.33333333 154.33333333 285.66666667 153.66666667 287 153 C287.165 152.34 287.33 151.68 287.5 151 C287.665 150.34 287.83 149.68 288 149 C288.57105469 148.77828125 289.14210938 148.5565625 289.73046875 148.328125 C293.18129048 146.30871125 294.80148054 143.09506979 296.8125 139.75 C297.2453833 139.04214355 297.6782666 138.33428711 298.12426758 137.60498047 C302.11532393 130.98591936 306.11631027 124.18319825 309 117 C308.67 116.34 308.34 115.68 308 115 C308.66 114.34 309.32 113.68 310 113 C326.56463528 88.15304709 325.41902899 48.70794284 321.75 20.5 C321.64083252 19.62972168 321.53166504 18.75944336 321.41918945 17.86279297 C320.80838488 13.83268434 319.9994496 10.6672384 317.890625 7.15625 C316 4 316 4 316 0 C317.7109375 -0.69921875 317.7109375 -0.69921875 320 -1 C322.2890625 0.29296875 322.2890625 0.29296875 324.625 2.1875 C325.40101563 2.79980469 326.17703125 3.41210938 326.9765625 4.04296875 C329 6 329 6 329.9453125 7.92456055 C331.04247087 10.0835752 332.19636111 11.4544381 333.8984375 13.1640625 C334.46046875 13.72867188 335.0225 14.29328125 335.6015625 14.875 C336.18679688 15.4525 336.77203125 16.03 337.375 16.625 C338.24125 17.50285156 338.24125 17.50285156 339.125 18.3984375 C339.68960937 18.96046875 340.25421875 19.5225 340.8359375 20.1015625 C341.34688965 20.61025879 341.8578418 21.11895508 342.38427734 21.64306641 C343.9881553 23.10147482 343.9881553 23.10147482 346.14306641 24.04443359 C348.80720798 25.41538418 348.89495905 27.23739763 350 30 C353.66227345 35.08610661 353.66227345 35.08610661 359 38 C359.0928125 39.0828125 359.0928125 39.0828125 359.1875 40.1875 C360.24831738 43.85956016 362.26065167 45.39427842 365 48 C365.69937532 49.31647119 366.36729133 50.65022151 367 52 C369.52376666 55.55232695 369.52376666 55.55232695 373 58 C373.12117188 58.69480469 373.24234375 59.38960937 373.3671875 60.10546875 C374.20788264 63.95087059 376.13002846 66.97269112 378.125 70.3125 C382.76048135 78.27877115 386.48115336 86.49140621 390 95 C390.66 95 391.32 95 392 95 C392.309375 96.8871875 392.309375 96.8871875 392.625 98.8125 C393.66295473 104.05417138 395.23045538 109.05076772 396.875 114.125 C399.61835421 122.68469691 402.180224 131.19038017 404 140 C404.18336914 140.86302734 404.36673828 141.72605469 404.55566406 142.61523438 C410.78294595 173.23533789 410.72390498 207.4779508 404 238 C403.75330566 239.12100098 403.50661133 240.24200195 403.25244141 241.39697266 C398.90741773 260.50280728 392.80242927 278.82286818 384.12890625 296.40625 C383.0206457 298.95256489 382.43111505 301.26464935 382 304 C381.34 304 380.68 304 380 304 C379.50113281 304.93457031 379.00226563 305.86914062 378.48828125 306.83203125 C370.25011094 322.00451696 361.00371857 336.52646857 349 349 C347.72136221 350.45149539 346.45009862 351.90953141 345.1875 353.375 C343.37080704 355.47475907 341.58150559 357.39703316 339.5625 359.3125 C337.66029598 360.98358097 337.66029598 360.98358097 338 364 C336.46384829 365.99699722 335.56270354 366.89108964 333.0625 367.375 C329.31127513 368.51173481 327.59286145 372.11070783 325.5 375.25 C324 377 324 377 322.1875 377.4375 C318.6936916 378.33590787 316.59373765 380.57917819 314 383 C313.67 383.99 313.34 384.98 313 386 C311.8553125 386.0928125 311.8553125 386.0928125 310.6875 386.1875 C307.13966123 387.26010242 306.79594408 388.87661899 305 392 C303.0625 392.5625 303.0625 392.5625 301 393 C300.14341797 393.87205078 300.14341797 393.87205078 299.26953125 394.76171875 C296.60121814 397.39329089 293.79571274 399.25444653 290.625 401.25 C289.52414062 401.95640625 288.42328125 402.6628125 287.2890625 403.390625 C283.83252852 405.08194566 281.78782264 405.34330719 278 405 C277.731875 405.61875 277.46375 406.2375 277.1875 406.875 C276 409 276 409 273 411 C270.3125 410.625 270.3125 410.625 268 410 C267.79375 410.598125 267.5875 411.19625 267.375 411.8125 C265.45320698 414.86989799 263.31879254 415.71312126 260 417 C259.01 416.67 258.02 416.34 257 416 C256.5875 416.45375 256.175 416.9075 255.75 417.375 C252.78952192 420.12401536 250.83086464 420.96804367 246.75 421.125 C245.8425 421.08375 244.935 421.0425 244 421 C243.67 421.66 243.34 422.32 243 423 C237.94490204 425.30583416 234.66492652 426.03275692 229.05932617 425.93652344 C225.86383197 426.03502118 222.99738772 426.92350106 219.9375 427.8125 C213.12192819 429.66469207 206.31514899 430.79221811 199.3125 431.6875 C198.38751709 431.80649658 197.46253418 431.92549316 196.50952148 432.0480957 C184.01905163 433.57432966 171.57898982 434.23621608 159 434.25 C157.90381851 434.25200912 157.90381851 434.25200912 156.78549194 434.25405884 C135.18191473 434.24557457 113.4745211 432.45795056 92.5625 426.8125 C89.67856254 426.15475988 87.85704614 425.95240188 85 426.0625 C80.44599899 426.19776736 77.12932307 424.88355087 73 423 C72.67 422.34 72.34 421.68 72 421 C70.700625 421.0928125 70.700625 421.0928125 69.375 421.1875 C64.64268147 420.92459342 61.34530013 419.34530013 58 416 C57.34 416.33 56.68 416.66 56 417 C54.0546875 416.07421875 54.0546875 416.07421875 51.875 414.6875 C51.15054688 414.23761719 50.42609375 413.78773438 49.6796875 413.32421875 C49.12539062 412.88722656 48.57109375 412.45023437 48 412 C48 411.34 48 410.68 48 410 C47.278125 410.2475 46.55625 410.495 45.8125 410.75 C43 411 43 411 40.1875 409.1875 C39.465625 408.465625 38.74375 407.74375 38 407 C38 406.34 38 405.68 38 405 C37.14664063 405.07734375 36.29328125 405.1546875 35.4140625 405.234375 C31.15361472 404.94189575 28.95265433 403.54573135 25.375 401.25 C24.26898438 400.55390625 23.16296875 399.8578125 22.0234375 399.140625 C19.36741441 397.2601332 17.2681988 395.3091595 15 393 C14.319375 392.855625 13.63875 392.71125 12.9375 392.5625 C11 392 11 392 9.625 389.5625 C7.51659627 386.23770951 5.65500646 386.16649142 2 385 C1.29848848 383.6846659 0.63474075 382.34882408 0 381 C-2.64639908 379.04396589 -5.15909959 377.36038589 -8.1875 376.0625 C-10.71683529 374.57978621 -11.53439341 372.50374459 -13 370 C-14.97390511 368.28079233 -16.75961257 367.1131235 -19.125 366 C-21 365 -21 365 -23 362 C-23 361.34 -23 360.68 -23 360 C-24.26382489 358.64056661 -25.58862632 357.33758913 -26.9375 356.0625 C-40.25678877 342.97142334 -50.81911448 327.17356723 -60.16015625 311.07421875 C-62.83139462 306.27823632 -62.83139462 306.27823632 -67 303 C-67.11988281 302.19046875 -67.23976563 301.3809375 -67.36328125 300.546875 C-68.22518661 295.74558627 -70.19135822 291.67899016 -72.1875 287.25 C-79.17347677 271.30718108 -84.39649868 255.03445938 -88 238 C-88.19899902 237.07300293 -88.39799805 236.14600586 -88.60302734 235.19091797 C-96.81820272 195.04353756 -93.30488596 152.42482447 -80.81933594 113.62255859 C-78.90341308 107.49000695 -77.20407259 101.31253802 -76 95 C-75.34 95 -74.68 95 -74 95 C-73.61070313 94.05382812 -73.22140625 93.10765625 -72.8203125 92.1328125 C-69.15564915 83.41167209 -65.0285906 75.13254945 -60.28955078 66.94189453 C-59.87688965 66.22372559 -59.46422852 65.50555664 -59.0390625 64.765625 C-58.66990723 64.13430664 -58.30075195 63.50298828 -57.92041016 62.85253906 C-56.95992112 60.91933195 -56.44478168 59.10673789 -56 57 C-55.34 57 -54.68 57 -54 57 C-53.360625 55.88625 -52.72125 54.7725 -52.0625 53.625 C-51.70285156 52.99851563 -51.34320313 52.37203125 -50.97265625 51.7265625 C-50.28280949 50.50201525 -49.62855462 49.25710923 -49 48 C-48.195625 47.2575 -47.39125 46.515 -46.5625 45.75 C-43.81635121 43.18463467 -43.81635121 43.18463467 -42.9375 39.8125 C-42 37 -42 37 -40.1875 36.0625 C-39.465625 35.711875 -38.74375 35.36125 -38 35 C-35.58238154 32.16129484 -33.51500862 29.1587694 -32 25.75 C-31 24 -31 24 -28.85546875 22.79296875 C-25.17541024 20.48223434 -22.35295502 17.64427491 -19.3125 14.5625 C-18.44141602 13.70301758 -18.44141602 13.70301758 -17.55273438 12.82617188 C-16.99521484 12.26607422 -16.43769531 11.70597656 -15.86328125 11.12890625 C-15.36094971 10.62431885 -14.85861816 10.11973145 -14.34106445 9.59985352 C-12.86825537 7.84283223 -11.99624109 6.05644883 -11 4 C-9.4140625 2.48046875 -9.4140625 2.48046875 -7.625 1.1875 C-6.74714844 0.52814453 -6.74714844 0.52814453 -5.8515625 -0.14453125 C-3.50485148 -1.22877115 -2.38346137 -0.85573613 0 0 Z M-16.48046875 20.25 C-38.68709485 43.01560296 -57.5528632 70.21367865 -69 100 C-69.69802734 101.7634375 -69.69802734 101.7634375 -70.41015625 103.5625 C-74.31613771 113.54417181 -77.5209658 123.57155504 -80 134 C-80.23138672 134.92087402 -80.46277344 135.84174805 -80.70117188 136.79052734 C-84.96845727 154.38296069 -85.48272806 171.66415154 -85.5 189.6875 C-85.50440094 190.80461365 -85.50880188 191.92172729 -85.51333618 193.07269287 C-85.53571591 206.69582204 -84.77637068 219.65485265 -82 233 C-81.73268066 234.38602417 -81.73268066 234.38602417 -81.45996094 235.80004883 C-81.04736889 237.89664912 -80.60033377 239.97935041 -80.125 242.0625 C-79.87737915 243.15727661 -79.87737915 243.15727661 -79.62475586 244.27416992 C-72.48189716 275.07216511 -59.41182048 304.91892326 -40 330 C-39.16003193 331.10797868 -38.32019559 332.21605723 -37.48046875 333.32421875 C-31.10403371 341.6611213 -24.2602982 349.42646486 -17 357 C-15.65808594 358.42119141 -15.65808594 358.42119141 -14.2890625 359.87109375 C-7.39040718 367.00240167 0.07916046 373.06689966 8 379 C8.97324219 379.73347656 9.94648437 380.46695312 10.94921875 381.22265625 C64.94120531 421.19675186 132.55949847 434.15355214 198.5625 425.375 C210.94405522 423.52689265 223.02388762 420.61725502 235 417 C236.0830542 416.68095703 236.0830542 416.68095703 237.18798828 416.35546875 C246.92170711 413.45894575 255.92310371 409.47690214 265 405 C266.38275993 404.32801681 267.76557346 403.65614392 269.1484375 402.984375 C287.74282381 393.88827862 304.47047283 382.67461142 320 369 C320.70125 368.40960938 321.4025 367.81921875 322.125 367.2109375 C332.4476461 358.47969934 341.70385807 348.65792648 350 338 C350.78761719 337.02933594 351.57523437 336.05867188 352.38671875 335.05859375 C381.29539887 298.7979416 400.77441271 250.45294589 401.2734375 203.86328125 C401.28596558 202.79829407 401.29849365 201.73330688 401.31140137 200.63604736 C401.526718 177.93911651 401.63045597 156.1228152 396 134 C395.76474609 133.03771484 395.52949219 132.07542969 395.28710938 131.08398438 C386.11830855 94.23197224 367.89016415 59.22302672 342.1015625 31.29296875 C339.51223657 28.46781202 337.05259369 25.5423845 334.60546875 22.59375 C332.8609062 20.86192149 331.20615436 20.04566216 329 19 C329.03029297 19.54712646 329.06058594 20.09425293 329.09179688 20.65795898 C329.71301149 32.09905967 330.26603673 43.5190096 330.03710938 54.97900391 C330.0007638 56.95840323 329.99227018 58.93825151 329.984375 60.91796875 C329.50269148 85.94403523 320.80113343 110.21203483 309 132 C308.66129883 132.6276123 308.32259766 133.25522461 307.97363281 133.90185547 C299.9452631 148.54429044 286.3145687 170.34271565 271 178 C271 178.66 271 179.32 271 180 C270.46632813 180.24234375 269.93265625 180.4846875 269.3828125 180.734375 C266.36104297 182.33938046 263.66691235 184.27211511 260.875 186.25 C242.49741047 199.08794561 222.7908852 208.66045816 200.9375 213.8125 C200.07624512 214.01963623 199.21499023 214.22677246 198.32763672 214.44018555 C185.80567229 217.216734 172.93345569 217.16785454 160.16601562 217.13037109 C158.00123092 217.12500305 155.83665357 217.13036326 153.671875 217.13671875 C140.68187256 217.14545935 127.81447811 216.875354 115.125 213.8125 C114.19953369 213.5954541 113.27406738 213.3784082 112.32055664 213.15478516 C101.91237375 210.62632948 91.1295949 207.73402627 82 202 C80.989375 201.5875 79.97875 201.175 78.9375 200.75 C63.29304704 194.17528378 49.56166725 183.14879606 37.47998047 171.43310547 C36.1039372 170.10064523 34.71081911 168.78588058 33.31640625 167.47265625 C19.25481082 153.93754801 9.27046486 137.56197477 1 120 C0.64421875 119.2575 0.2884375 118.515 -0.078125 117.75 C-1.11096571 115.52037561 -2.06845543 113.27384894 -3 111 C-3.38929687 110.05640625 -3.77859375 109.1128125 -4.1796875 108.140625 C-10.47409405 91.79862538 -13.80886539 74.49094034 -14 57 C-14.01369629 56.3287207 -14.02739258 55.65744141 -14.04150391 54.96582031 C-14.27868784 42.95802633 -13.66366688 30.98660054 -13 19 C-15.06824171 18.78495716 -15.06824171 18.78495716 -16.48046875 20.25 Z M-76 98 C-75 100 -75 100 -75 100 Z M391 98 C392 100 392 100 392 100 Z "
        fill="#040206" transform="translate(92,65)" />
    <path
        d="M0 0 C0.89669907 -0.0033284 1.79339813 -0.0066568 2.7172699 -0.01008606 C4.61432383 -0.01514037 6.51138661 -0.01749485 8.40844727 -0.01733398 C11.27440582 -0.01950535 14.13996961 -0.03763507 17.00585938 -0.05664062 C37.88047984 -0.12056922 37.88047984 -0.12056922 47.74609375 3.16796875 C51.00600107 4.13386721 54.22369372 5.06348874 57.55859375 5.73046875 C59.74609375 6.16796875 59.74609375 6.16796875 61.74609375 7.16796875 C61.74609375 8.15796875 61.74609375 9.14796875 61.74609375 10.16796875 C62.46796875 9.92046875 63.18984375 9.67296875 63.93359375 9.41796875 C66.74609375 9.16796875 66.74609375 9.16796875 69.30859375 10.98046875 C70.11296875 11.70234375 70.91734375 12.42421875 71.74609375 13.16796875 C72.44734375 13.51859375 73.14859375 13.86921875 73.87109375 14.23046875 C75.74609375 15.16796875 75.74609375 15.16796875 77.18359375 16.73046875 C78.70882862 18.39336429 78.70882862 18.39336429 81.24609375 18.60546875 C84.4228098 19.32022986 85.00480334 20.51457385 86.74609375 23.16796875 C88.86394488 24.28581988 88.86394488 24.28581988 91.74609375 25.16796875 C92.77188086 26.81888928 93.76808949 28.4883005 94.74609375 30.16796875 C96.17536907 31.77623251 97.65704991 33.339222 99.18359375 34.85546875 C100.32634766 36.00595703 100.32634766 36.00595703 101.4921875 37.1796875 C103.59641422 39.22873025 103.59641422 39.22873025 105.96875 40.1875 C106.55527344 40.51105469 107.14179688 40.83460937 107.74609375 41.16796875 C108.11862267 42.4908864 108.44423605 43.82715899 108.74609375 45.16796875 C110.04743507 47.14133754 111.41071291 49.07426761 112.80859375 50.98046875 C123.90992766 66.63893472 131.56073361 83.95187096 133.74609375 103.16796875 C134.40609375 103.16796875 135.06609375 103.16796875 135.74609375 103.16796875 C136.56766948 108.89943751 136.90054048 114.44418578 136.87109375 120.23046875 C136.87496094 120.99423828 136.87882813 121.75800781 136.8828125 122.54492188 C136.87486865 127.18810087 136.51247179 131.5879476 135.74609375 136.16796875 C135.08609375 136.16796875 134.42609375 136.16796875 133.74609375 136.16796875 C133.61332031 137.26496094 133.48054687 138.36195313 133.34375 139.4921875 C133.1654639 140.94662676 132.98707295 142.40105317 132.80859375 143.85546875 C132.67807617 144.93731445 132.67807617 144.93731445 132.54492188 146.04101562 C132.0829557 149.78807459 131.55441696 153.47589786 130.74609375 157.16796875 C130.08609375 157.16796875 129.42609375 157.16796875 128.74609375 157.16796875 C128.53855469 157.81121094 128.33101562 158.45445312 128.1171875 159.1171875 C125.79930954 165.91564963 122.80756668 171.99443778 119.234375 178.22265625 C117.85339855 180.95561227 117.16304387 183.15480923 116.74609375 186.16796875 C115.75609375 186.49796875 114.76609375 186.82796875 113.74609375 187.16796875 C112.0674474 189.28203053 112.0674474 189.28203053 110.37109375 191.91796875 C106.48099884 197.47006316 102.04756667 202.08750603 97.13916016 206.75097656 C94.3601636 209.41795027 92.39900748 211.70968808 90.74609375 215.16796875 C89.75609375 215.49796875 88.76609375 215.82796875 87.74609375 216.16796875 C84.81215328 217.95710324 84.81215328 217.95710324 83.05859375 219.98046875 C76.86175488 225.84234336 68.88524619 229.94013826 60.55859375 231.60546875 C59.96046875 231.79109375 59.36234375 231.97671875 58.74609375 232.16796875 C58.41609375 232.82796875 58.08609375 233.48796875 57.74609375 234.16796875 C54.80759159 235.72364637 52.87778866 236.17084908 49.53125 236.09765625 C46.18255715 236.15986107 43.55074741 236.66576542 40.35742188 237.59179688 C22.10090474 242.72589845 -0.60190168 242.30799552 -18.7578125 237.04296875 C-22.3953702 236.13256325 -25.52234074 236.12306423 -29.25390625 236.16796875 C-34.90506904 233.86564317 -34.90506904 233.86564317 -36.25390625 231.16796875 C-37.24390625 231.16796875 -38.23390625 231.16796875 -39.25390625 231.16796875 C-47.2362481 229.75635461 -54.97460976 224.08220079 -61.25390625 219.16796875 C-61.58390625 218.50796875 -61.91390625 217.84796875 -62.25390625 217.16796875 C-64.21606841 216.14764843 -64.21606841 216.14764843 -66.19140625 215.41796875 C-68.25390625 214.16796875 -68.25390625 214.16796875 -69.52734375 211.94140625 C-71.57874957 208.6461616 -74.14339816 206.18618783 -76.94140625 203.54296875 C-81.86084964 198.79200456 -85.83636469 193.95691832 -89.6328125 188.25 C-91.16048044 185.89118402 -91.16048044 185.89118402 -94.25390625 185.16796875 C-94.33769531 184.33136719 -94.42148438 183.49476563 -94.5078125 182.6328125 C-95.40275322 178.47672652 -97.08988375 175.38674595 -99.19140625 171.73046875 C-101.93794694 166.93016417 -103.92651735 162.55397082 -105.25390625 157.16796875 C-105.91390625 157.16796875 -106.57390625 157.16796875 -107.25390625 157.16796875 C-108.21934738 152.75825117 -108.77633574 148.33205324 -109.31640625 143.85546875 C-109.40728516 143.11490234 -109.49816406 142.37433594 -109.59179688 141.61132812 C-109.81418844 139.79708117 -110.03427978 137.98255251 -110.25390625 136.16796875 C-110.91390625 136.16796875 -111.57390625 136.16796875 -112.25390625 136.16796875 C-113.15035778 130.81060363 -113.40638402 125.65732852 -113.37890625 120.23046875 C-113.38277344 119.47056641 -113.38664062 118.71066406 -113.390625 117.92773438 C-113.38207948 112.92433047 -112.96389643 108.12099549 -112.25390625 103.16796875 C-111.59390625 103.16796875 -110.93390625 103.16796875 -110.25390625 103.16796875 C-110.09535156 102.25917969 -109.93679687 101.35039063 -109.7734375 100.4140625 C-106.04526 80.33133842 -98.93858568 62.50727034 -86.00390625 46.5859375 C-84.14056837 44.36085046 -84.14056837 44.36085046 -83.81640625 42.03125 C-82.9460418 39.14816776 -80.81625972 38.60288669 -78.25390625 37.16796875 C-76.62493528 35.71765912 -75.04096932 34.21534768 -73.50390625 32.66796875 C-72.7253125 31.89453125 -71.94671875 31.12109375 -71.14453125 30.32421875 C-69.05758008 28.22510996 -69.05758008 28.22510996 -68.25390625 25.16796875 C-67.26390625 24.83796875 -66.27390625 24.50796875 -65.25390625 24.16796875 C-62.27159114 22.35492329 -62.27159114 22.35492329 -60.37890625 20.10546875 C-57.96744745 17.90678573 -56.44902096 17.5229815 -53.25390625 17.16796875 C-52.75890625 15.68296875 -52.75890625 15.68296875 -52.25390625 14.16796875 C-50.92057292 13.83463542 -49.58723958 13.50130208 -48.25390625 13.16796875 C-47.44953125 12.46671875 -46.64515625 11.76546875 -45.81640625 11.04296875 C-43.25390625 9.16796875 -43.25390625 9.16796875 -40.44140625 9.41796875 C-39.71953125 9.66546875 -38.99765625 9.91296875 -38.25390625 10.16796875 C-38.25390625 9.17796875 -38.25390625 8.18796875 -38.25390625 7.16796875 C-34.53234854 5.05596346 -31.38343327 4.78692306 -27.1796875 4.51171875 C-26.54417969 4.39828125 -25.90867187 4.28484375 -25.25390625 4.16796875 C-24.92390625 3.50796875 -24.59390625 2.84796875 -24.25390625 2.16796875 C-22.14453125 1.7890625 -22.14453125 1.7890625 -19.50390625 1.60546875 C-15.80470843 1.33840993 -15.80470843 1.33840993 -12.16723633 0.66308594 C-8.10448023 -0.02737492 -4.11412175 0.00535318 0 0 Z M-58.25390625 28.16796875 C-59.26904297 28.84666016 -59.26904297 28.84666016 -60.3046875 29.5390625 C-64.03012908 32.099805 -67.10092975 34.94471788 -70.25390625 38.16796875 C-71.09308594 39.02132812 -71.93226563 39.8746875 -72.796875 40.75390625 C-84.24514372 52.82785583 -92.19550657 65.69104855 -98.25390625 81.16796875 C-98.74310547 82.34359375 -98.74310547 82.34359375 -99.2421875 83.54296875 C-108.85687662 108.78769096 -106.31670285 140.96557574 -95.5 165.17578125 C-83.28761597 191.32987581 -62.6104411 212.27449063 -36.25390625 224.16796875 C-35.11308594 224.70164063 -35.11308594 224.70164063 -33.94921875 225.24609375 C-31.41841619 226.34948864 -28.86308359 227.26452365 -26.25390625 228.16796875 C-25.0834375 228.61527344 -23.91296875 229.06257812 -22.70703125 229.5234375 C0.20764392 237.40505748 30.38464452 235.87818895 52.74609375 227.16796875 C53.64166992 226.81943848 54.53724609 226.4709082 55.45996094 226.11181641 C68.70485203 220.75123748 79.96037174 213.49193368 90.74609375 204.16796875 C91.68710937 203.3584375 92.628125 202.54890625 93.59765625 201.71484375 C114.65120263 182.06486713 126.68310718 154.15875762 128.0625 125.65625 C129.03410758 93.01743241 118.23155419 64.36380454 96.05932617 40.43481445 C75.64142953 19.27083145 47.22588845 6.59953902 17.94921875 6 C-11.04477235 5.7761918 -34.18994407 11.762554 -58.25390625 28.16796875 Z M-112.25390625 112.16796875 C-112.25390625 117.11796875 -112.25390625 122.06796875 -112.25390625 127.16796875 C-111.92390625 127.16796875 -111.59390625 127.16796875 -111.25390625 127.16796875 C-111.25390625 122.21796875 -111.25390625 117.26796875 -111.25390625 112.16796875 C-111.58390625 112.16796875 -111.91390625 112.16796875 -112.25390625 112.16796875 Z M134.74609375 112.16796875 C134.74609375 117.11796875 134.74609375 122.06796875 134.74609375 127.16796875 C135.07609375 127.16796875 135.40609375 127.16796875 135.74609375 127.16796875 C135.74609375 122.21796875 135.74609375 117.26796875 135.74609375 112.16796875 C135.41609375 112.16796875 135.08609375 112.16796875 134.74609375 112.16796875 Z M-107.25390625 152.16796875 C-106.25390625 154.16796875 -106.25390625 154.16796875 -106.25390625 154.16796875 Z M129.74609375 152.16796875 C130.74609375 154.16796875 130.74609375 154.16796875 130.74609375 154.16796875 Z "
        fill="#030206" transform="translate(238.25390625,-0.16796875)" />
</svg>
