<?xml version="1.0" encoding="UTF-8"?>
<svg version="1.1" xmlns="http://www.w3.org/2000/svg" width="485" height="480">
    <path
        d="M0 0 C3.06713244 1.36242426 5.11840293 2.89699705 7.4375 5.3125 C7.99308594 5.88613281 8.54867188 6.45976563 9.12109375 7.05078125 C9.74113281 7.69402344 10.36117188 8.33726563 11 9 C13.50687703 11.52323512 16.02850962 14.02773208 18.578125 16.5078125 C24.35700408 22.16841042 29.69880489 27.96088527 34.69238281 34.34179688 C36.17061519 36.21635891 37.67528728 38.06825488 39.1796875 39.921875 C76.39613092 86.22127893 107.64163884 150.5209743 108.23828125 210.93359375 C108.24812042 211.76053238 108.25795959 212.58747101 108.26809692 213.43946838 C109.03203514 294.38047342 71.08746762 362.77169977 15.53125 419.5625 C14.37671011 420.73085902 13.22050222 421.89757252 12.0625 423.0625 C11.53084229 423.59883057 10.99918457 424.13516113 10.45141602 424.68774414 C9.68849243 425.44752563 9.68849243 425.44752563 8.91015625 426.22265625 C8.46808838 426.66359619 8.02602051 427.10453613 7.57055664 427.55883789 C7.05227295 428.03442139 6.53398926 428.51000488 6 429 C5.36101745 429.67957512 4.72203489 430.35915024 4.06368923 431.05931854 C-0.42705148 433.90395994 -4.37479236 433.54625818 -9.58958435 433.49206543 C-10.66864251 433.49674442 -11.74770066 433.50142341 -12.85945755 433.50624418 C-16.48263701 433.5171942 -20.10512464 433.49966955 -23.72827148 433.48242188 C-26.32382411 433.48460741 -28.91937575 433.48860365 -31.5149231 433.49427795 C-37.11117942 433.50396106 -42.70728003 433.49948788 -48.30352592 433.4858551 C-56.41868344 433.46646068 -64.53366663 433.47294794 -72.64882875 433.48642892 C-85.84703047 433.50802239 -99.04519107 433.51472297 -112.2434082 433.50927734 C-113.03330401 433.50895671 -113.82319982 433.50863608 -114.63703186 433.50830573 C-121.03607988 433.50559685 -127.43512747 433.50217072 -133.83417511 433.49870014 C-139.40287768 433.49570777 -144.97158029 433.49299794 -150.5402832 433.49072266 C-151.32405854 433.49039715 -152.10783387 433.49007163 -152.91535997 433.48973626 C-166.04413343 433.48477183 -179.17285006 433.4955662 -192.30160576 433.51729441 C-200.38084968 433.52991392 -208.45985719 433.52867601 -216.5390879 433.50884354 C-222.75741997 433.4945966 -228.97558204 433.50093795 -235.19391251 433.51434135 C-237.72445747 433.51645341 -240.2550195 433.51186228 -242.78553581 433.4996357 C-262.94396895 433.40782514 -281.95177294 435.53275795 -301.1875 441.75 C-302.27571045 442.09506592 -303.3639209 442.44013184 -304.48510742 442.7956543 C-328.22835408 450.48771884 -353.19390643 461.37900603 -372.28515625 477.7890625 C-375 480 -375 480 -377 480 C-374.86046608 472.76704277 -371.8227325 466.58613041 -368.0625 460.0625 C-367.48910889 459.05977051 -366.91571777 458.05704102 -366.32495117 457.02392578 C-348.89915647 426.89067596 -326.17037013 397.08152261 -298.82421875 375.265625 C-295.97773899 372.98214193 -293.21075455 370.62161079 -290.4375 368.25 C-246.30627878 331.47398232 -193.35238902 304.4161847 -137.08886719 293.01513672 C-104.80695554 286.3443317 -75.38469421 269.00341257 -51.58984375 246.4375 C-49.46461361 244.4372834 -47.30465261 242.55207598 -45.0625 240.6875 C-8.50746127 208.73960458 15.55628414 161.01906876 18.85498047 112.67578125 C20.96028034 73.83051763 13.57288845 36.27444523 0 0 Z "
        fill="#FFC100" transform="translate(377,0)" />
    <path
        d="M0 0 C-1.01707031 1.03833984 -1.01707031 1.03833984 -2.0546875 2.09765625 C-25.87068045 26.91856161 -39.43804939 59.09517357 -40.375 93.5 C-39.57422206 122.9045659 -29.99343262 155.75030557 -8.21484375 176.71875 C-7 178 -7 178 -7 180 C-11.35493669 181.13740699 -15.69618188 182.16109703 -20.1171875 183.0078125 C-71.69121152 192.92554774 -119.56031378 215.9072078 -159.0625 250.5625 C-162 253 -162 253 -164 253 C-171.14594858 210.43891005 -168.87882247 168.44865377 -153 128 C-152.55140625 126.83855469 -152.1028125 125.67710937 -151.640625 124.48046875 C-139.83225993 95.45709954 -119.54691858 66.65500598 -95 47 C-93.98679687 46.17242187 -92.97359375 45.34484375 -91.9296875 44.4921875 C-66.67433942 24.08433584 -38.12752709 9.24696642 -7 0 C-6.31357422 -0.21269531 -5.62714844 -0.42539063 -4.91992188 -0.64453125 C-3 -1 -3 -1 0 0 Z "
        fill="#FFC100" transform="translate(249,86)" />
</svg>
