<svg viewBox="0 0 126 126" xmlns="http://www.w3.org/2000/svg">
    <g>
        <path d="M78.241,32.965L77.1,41.5l27.307-8.533L105.548,25Z" fill="#fff" />
        <path d="M87.343,75.632l4.551,6.258,27.876-7.965L114,68Z" fill="#fff" />
        <path d="M112.943,39.791l-7.395,2.276-1.138-4.551L57.191,51.169,54.916,66.53l10.24,10.809,46.649-13.085L111.237,59.7l6.826-2.276Z"
            fill="#fff" />
        <path d="M51.291,57.954L6.559,70.814l2.8,2.8h1.677l9.505-3.355,1.118,3.355-6.71,1.677,1.118,4.473,7.269-2.237,0.559,3.355-11.183,2.8-1.118,4.473,44.732-12.86-6.71-6.71Z"
            fill="#fff" />
        <path d="M4,122V102l20,20H4Zm118,0V102l-20,20h20ZM122,4V24L102,4h20ZM4,4V24L24,4H4Z"
            fill="#c9b269" />
    </g>
</svg>